<svg width="310" height="462" fill="blck" xmlns="http://www.w3.org/2000/svg"><circle cx="136.5" cy="116.5" r="28.5" fill="#fff" fill-opacity=".2"/><circle cx="172.5" cy="394.5" r="7.5" fill="#fff" fill-opacity=".2"/><circle cx="276.5" cy="145.5" r="14.5" fill="#fff" fill-opacity=".2"/><path fill="#fff" fill-opacity=".2" d="m0 369 10-11 29 26-10 11zM195 273l10-11 29 26-10 11zM233 11l10-11 29 26-10 11zM51 258l8-88 73 51-81 37ZM255 446l4-46 38 27-42 19ZM34 26l24 24-24 24L9 50l25-24ZM294 314l16 17-16 16-17-16 17-17Z"/></svg>